<?xml version="1.0" encoding="iso-8859-1"?>
<!-- Uploaded to: SVG Repo, www.svgrepo.com, Generator: SVG Repo Mixer Tools -->
<svg fill="#000000" height="800px" width="800px" version="1.1" id="Layer_1" xmlns="http://www.w3.org/2000/svg" xmlns:xlink="http://www.w3.org/1999/xlink" 
	 viewBox="0 0 512 512" xml:space="preserve">
<g>
	<g>
		<polygon points="156.025,193.535 156.025,220.364 133.929,220.364 133.929,193.535 111.685,193.535 111.685,268.514 
			133.929,268.514 133.929,240.047 156.025,240.047 156.025,268.514 178.268,268.514 178.268,193.535 		"/>
	</g>
</g>
<g>
	<g>
		<polygon points="186.335,193.535 186.335,213.218 207.327,213.218 207.327,268.514 229.571,268.514 229.571,213.218 
			250.46,213.218 250.46,193.535 		"/>
	</g>
</g>
<g>
	<g>
		<polygon points="312.183,193.535 297.145,226.15 282.205,193.535 258.527,193.535 258.527,268.514 280.769,268.514 
			280.769,234.354 291.083,257.148 303.201,257.148 313.515,234.354 313.515,268.514 335.758,268.514 335.758,193.535 		"/>
	</g>
</g>
<g>
	<g>
		<polygon points="371.29,248.831 371.29,193.535 349.046,193.535 349.046,268.514 404.263,268.514 404.263,248.831 		"/>
	</g>
</g>
<g>
	<g>
		<path d="M489.244,347.022V73.956H22.756v273.067H0v45.511c0,25.095,20.416,45.511,45.511,45.511h420.978
			c25.095,0,45.511-20.416,45.511-45.511v-45.511H489.244z M56.889,108.089h398.222v238.933H56.889V108.089z M477.867,392.533
			c0,6.274-5.104,11.378-11.378,11.378H45.511c-6.274,0-11.378-5.104-11.378-11.378v-11.378h443.733V392.533z"/>
	</g>
</g>
</svg>