<?xml version="1.0" encoding="iso-8859-1"?>
<!-- Uploaded to: SVG Repo, www.svgrepo.com, Generator: SVG Repo Mixer Tools -->
<svg version="1.1" id="Layer_1" xmlns="http://www.w3.org/2000/svg" xmlns:xlink="http://www.w3.org/1999/xlink" 
	 viewBox="0 0 512 512" xml:space="preserve">
<path d="M0,304.084V28.532c0-4.896,4.184-8.888,9.288-8.888h436.536c5.104,0,9.288,4,9.288,8.888v275.552H0z"/>
<g>
	<path style="fill:#999999;" d="M455.112,304.084v37.92c0,5.216-4.184,9.488-9.288,9.488H9.288c-5.104,0-9.288-4.264-9.288-9.48
		v-37.92L455.112,304.084L455.112,304.084z"/>
	<polygon style="fill:#999999;" points="161.184,417.86 293.92,417.86 284.448,351.492 170.664,351.492 	"/>
</g>
<g>
	<polygon style="fill:#636363;" points="284.448,351.492 170.664,351.492 164.76,392.86 286.656,366.964 	"/>
	<rect x="128" y="417.836" style="fill:#636363;" width="199.112" height="9.48"/>
</g>
<g>
	<rect x="105.496" y="232.316" style="fill:#FFFFFF;" width="244.12" height="9.48"/>
	<rect x="55.512" y="261.956" style="fill:#FFFFFF;" width="344.08" height="9.48"/>
</g>
<path style="fill:#E50914;" d="M315.84,204.036H139.28c-5.712,0-10.384-4.672-10.384-10.384V65.556
	c0-5.712,4.672-10.384,10.384-10.384h176.56c5.712,0,10.384,4.672,10.384,10.384v128.096
	C326.224,199.356,321.552,204.036,315.84,204.036z"/>
<polygon style="fill:#FFFFFF;" points="197.928,89.98 272.296,132.916 197.928,175.852 "/>
<path d="M503.216,492.356H356.8c-4.832,0-8.784-3.952-8.784-8.784V208.308c0-4.832,3.952-8.784,8.784-8.784h146.416
	c4.832,0,8.784,3.952,8.784,8.784v275.264C512,488.396,508.048,492.356,503.216,492.356z"/>
<rect x="356.8" y="222.948" width="146.416" height="234.24"/>
<g>
	<path style="fill:#999999;" d="M447.424,214.164h-35.136c-1.608,0-2.928-1.32-2.928-2.928l0,0c0-1.608,1.32-2.928,2.928-2.928
		h35.136c1.608,0,2.928,1.32,2.928,2.928l0,0C450.352,212.844,449.032,214.164,447.424,214.164z"/>
	<path style="fill:#999999;" d="M447.576,474.78H412.44c-1.608,0-2.928-1.32-2.928-2.928l0,0c0-1.608,1.32-2.928,2.928-2.928h35.136
		c1.608,0,2.928,1.32,2.928,2.928l0,0C450.504,473.468,449.184,474.78,447.576,474.78z"/>
</g>
<g>
	<rect x="374.376" y="431.548" style="fill:#FFFFFF;" width="111.272" height="4.744"/>
	<rect x="374.376" y="412.948" style="fill:#FFFFFF;" width="111.272" height="4.744"/>
	<rect x="374.376" y="394.316" style="fill:#FFFFFF;" width="111.272" height="4.744"/>
	<rect x="374.376" y="375.74" style="fill:#FFFFFF;" width="111.272" height="4.744"/>
</g>
<path style="fill:#E50914;" d="M480.584,339.7H379.448c-3.272,0-5.952-2.68-5.952-5.952v-73.376c0-3.272,2.68-5.952,5.952-5.952
	h101.136c3.272,0,5.952,2.68,5.952,5.952v73.376C486.536,337.02,483.856,339.7,480.584,339.7z"/>
<polygon style="fill:#FFFFFF;" points="413.048,274.372 455.648,298.964 413.048,323.556 "/>
</svg>